<svg xmlns="http://www.w3.org/2000/svg" viewBox="0 0 400 400">
  <!-- Background -->
  <rect width="400" height="400" fill="#FFF5EF" opacity="0" />
  
  <!-- Book Cover -->
  <path d="M80 100 L320 100 L320 300 L80 300 C70 300 60 290 60 280 L60 120 C60 110 70 100 80 100 Z" fill="#062630" />
  
  <!-- Book Spine Shadow -->
  <path d="M80 100 C70 100 60 110 60 120 L60 280 C60 290 70 300 80 300 L100 300 L100 100 Z" fill="#385159" />
  
  <!-- Book Pages -->
  <path d="M100 110 L320 110 L320 290 L100 290 Z" fill="#E6E1DF" />
  
  <!-- Book Bookmark -->
  <path d="M280 110 L300 110 L300 180 L290 195 L280 180 Z" fill="#FEA36F" />
  
  <!-- Arms -->
  <path d="M70 220 C30 240 40 280 70 260" fill="none" stroke="#385159" stroke-width="8" stroke-linecap="round" />
  <path d="M330 220 C370 240 360 280 330 260" fill="none" stroke="#385159" stroke-width="8" stroke-linecap="round" />
  
  <!-- Legs -->
  <path d="M120 300 C100 340 130 360 150 320" fill="none" stroke="#385159" stroke-width="8" stroke-linecap="round" />
  <path d="M280 300 C300 340 270 360 250 320" fill="none" stroke="#385159" stroke-width="8" stroke-linecap="round" />
  
  <!-- Face -->
  <!-- Eyes -->
  <ellipse cx="160" cy="180" rx="15" ry="20" fill="white" />
  <ellipse cx="240" cy="180" rx="15" ry="20" fill="white" />
  <ellipse cx="160" cy="180" rx="8" ry="10" fill="#062630" />
  <ellipse cx="240" cy="180" rx="8" ry="10" fill="#062630" />
  <ellipse cx="156" cy="176" rx="3" ry="3" fill="white" />
  <ellipse cx="236" cy="176" rx="3" ry="3" fill="white" />
  
  <!-- Eyebrows -->
  <path d="M145 155 C155 145 175 150 175 160" fill="none" stroke="#062630" stroke-width="3" stroke-linecap="round" />
  <path d="M255 155 C245 145 225 150 225 160" fill="none" stroke="#062630" stroke-width="3" stroke-linecap="round" />
  
  <!-- Rosy Cheeks -->
  <ellipse cx="135" cy="205" rx="15" ry="10" fill="#FEA36F" opacity="0.8" />
  <ellipse cx="265" cy="205" rx="15" ry="10" fill="#FEA36F" opacity="0.8" />
  
  <!-- Smile -->
  <path d="M160 225 C180 245 220 245 240 225" fill="none" stroke="#062630" stroke-width="3" stroke-linecap="round" />
</svg>
